<?xml version="1.0" encoding="utf-8"?>
<!-- Generator: Adobe Illustrator 15.0.0, SVG Export Plug-In  -->
<!DOCTYPE svg PUBLIC "-//W3C//DTD SVG 1.1//EN" "http://www.w3.org/Graphics/SVG/1.1/DTD/svg11.dtd" [
	<!ENTITY ns_flows "http://ns.adobe.com/Flows/1.0/">
]>
<svg version="1.1"
	 xmlns="http://www.w3.org/2000/svg" xmlns:xlink="http://www.w3.org/1999/xlink" xmlns:a="http://ns.adobe.com/AdobeSVGViewerExtensions/3.0/"
	 x="0px" y="0px" width="27px" height="18px" viewBox="0 0 27 18" enable-background="new 0 0 27 18" xml:space="preserve">
<defs>
</defs>
<path fill="#CCCCCC" d="M26.4,4.62c0.319-0.159,0.499-0.18,0.54-0.06C26.979,4.68,27,4.8,27,4.92v11.04
	c0,0.321-0.171,0.641-0.51,0.96c-0.341,0.32-0.671,0.48-0.99,0.48h-24c-0.321,0-0.65-0.16-0.99-0.48C0.17,16.601,0,16.281,0,15.96
	V4.92C0,4.8,0.02,4.68,0.06,4.56C0.1,4.44,0.279,4.461,0.6,4.62c0.12,0.081,0.489,0.27,1.11,0.57c0.62,0.3,1.34,0.67,2.16,1.11
	c0.819,0.44,1.7,0.9,2.64,1.38c0.939,0.48,1.81,0.93,2.61,1.35c0.8,0.42,1.479,0.78,2.04,1.08c0.56,0.3,0.879,0.471,0.96,0.51
	c0.279,0.16,0.519,0.25,0.72,0.27c0.2,0.021,0.42,0.03,0.66,0.03s0.459-0.01,0.66-0.03c0.2-0.02,0.439-0.11,0.72-0.27
	c0.08-0.039,0.399-0.21,0.96-0.51c0.56-0.3,1.25-0.66,2.07-1.08c0.819-0.42,1.699-0.87,2.64-1.35c0.939-0.48,1.82-0.939,2.641-1.38
	c0.819-0.44,1.529-0.81,2.13-1.11C25.92,4.89,26.28,4.701,26.4,4.62z M0.9,1.62C0.699,1.5,0.53,1.35,0.39,1.17
	C0.25,0.99,0.15,0.81,0.09,0.63C0.03,0.45,0.05,0.3,0.15,0.18C0.25,0.06,0.48,0,0.84,0h25.38c0.32,0,0.53,0.06,0.63,0.18
	s0.13,0.27,0.091,0.45C26.899,0.81,26.8,0.99,26.64,1.17c-0.16,0.18-0.34,0.33-0.54,0.45c-0.119,0.081-0.471,0.27-1.05,0.57
	c-0.58,0.3-1.28,0.67-2.1,1.11c-0.82,0.44-1.69,0.9-2.61,1.38c-0.921,0.48-1.77,0.94-2.55,1.38c-0.78,0.441-1.45,0.801-2.01,1.08
	c-0.561,0.28-0.86,0.441-0.9,0.48c-0.201,0.12-0.42,0.201-0.66,0.24c-0.24,0.04-0.48,0.06-0.72,0.06c-0.561,0-1.02-0.1-1.38-0.3
	c-0.081-0.039-0.39-0.2-0.93-0.48c-0.54-0.279-1.2-0.639-1.98-1.08c-0.78-0.439-1.63-0.9-2.55-1.38C5.739,4.2,4.869,3.741,4.05,3.3
	c-0.82-0.44-1.521-0.81-2.1-1.11C1.37,1.89,1.02,1.701,0.9,1.62z"/>
</svg>
