<?xml version="1.0" encoding="utf-8"?>
<!-- Generator: Adobe Illustrator 15.0.0, SVG Export Plug-In  -->
<!DOCTYPE svg PUBLIC "-//W3C//DTD SVG 1.1//EN" "http://www.w3.org/Graphics/SVG/1.1/DTD/svg11.dtd" [
	<!ENTITY ns_flows "http://ns.adobe.com/Flows/1.0/">
]>
<svg version="1.1"
	 xmlns="http://www.w3.org/2000/svg" xmlns:xlink="http://www.w3.org/1999/xlink" xmlns:a="http://ns.adobe.com/AdobeSVGViewerExtensions/3.0/"
	 x="0px" y="0px" width="24px" height="24px" viewBox="0 0 24 24" enable-background="new 0 0 24 24" xml:space="preserve">
<defs>
</defs>
<path fill="#CCCCCC" d="M13.838,13.831c0.6-0.6,1.17-1.2,1.71-1.8s0.99-1.179,1.351-1.74c0.359-0.56,0.6-1.069,0.72-1.53
	c0.12-0.459,0.039-0.83-0.24-1.11c-0.4-0.399-0.76-0.77-1.08-1.11c-0.32-0.339-0.521-0.729-0.6-1.17
	c-0.081-0.439-0.011-0.95,0.21-1.53c0.219-0.58,0.669-1.29,1.35-2.13c0.68-0.879,1.31-1.41,1.891-1.59
	c0.579-0.18,1.119-0.159,1.619,0.06c0.5,0.22,0.961,0.55,1.381,0.99c0.42,0.44,0.81,0.84,1.17,1.2c0.439,0.441,0.66,1.15,0.66,2.13
	c0,0.98-0.252,2.13-0.75,3.45c-0.501,1.32-1.261,2.76-2.281,4.32c-1.021,1.56-2.331,3.141-3.931,4.74c-1.6,1.6-3.18,2.91-4.74,3.93
	c-1.56,1.021-3,1.791-4.32,2.311s-2.47,0.779-3.45,0.779c-0.98,0-1.69-0.219-2.13-0.66c-0.36-0.359-0.771-0.759-1.23-1.199
	c-0.46-0.439-0.79-0.91-0.99-1.41c-0.201-0.5-0.21-1.039-0.03-1.62c0.18-0.579,0.69-1.21,1.53-1.89c0.84-0.68,1.549-1.13,2.13-1.35
	c0.579-0.221,1.089-0.279,1.53-0.181c0.44,0.101,0.83,0.311,1.17,0.63c0.34,0.32,0.71,0.681,1.11,1.08
	c0.279,0.28,0.649,0.359,1.11,0.24c0.459-0.12,0.969-0.36,1.53-0.721c0.56-0.359,1.149-0.818,1.77-1.379
	C12.628,15.012,13.238,14.431,13.838,13.831z"/>
</svg>
